<svg width="14" height="32" viewBox="0 0 14 32" fill="none" xmlns="http://www.w3.org/2000/svg">
<path d="M1.90735e-05 5L1.14441e-05 3.00001C5.12372e-06 1.34315 1.34315 0 3.00001 0H5.00002H7.00002H9.00001C10.6569 0 12 1.34314 12 2.99999L12 5V7.38447C12 7.79328 12.0502 8.20054 12.1493 8.59714L13.6968 14.7873C13.8959 15.5835 13.8959 16.4165 13.6968 17.2127L12.1493 23.4028C12.0502 23.7994 12 24.2067 12 24.6155V27V29C12 30.6568 10.6569 32 9.00002 32H7.00002H5.00002H3C1.34315 32 9.48834e-07 30.6568 2.11928e-06 29L1.90735e-05 5Z" fill="url(#paint0_linear_325_61)"/>
<defs>
<linearGradient id="paint0_linear_325_61" x1="-0.000365552" y1="16" x2="29.9996" y2="16" gradientUnits="userSpaceOnUse">
<stop stop-color="white"/>
<stop offset="1" stop-color="#7000FF"/>
</linearGradient>
</defs>
</svg>
