<svg width="5" height="32" viewBox="0 0 5 32" fill="none" xmlns="http://www.w3.org/2000/svg">
<path d="M0.0982256 1.58185C-0.232406 0.837927 0.31214 0 1.12623 0H2.30451C3.34871 0 4.1952 0.846492 4.1952 1.89069V30.0622C4.1952 31.1324 3.32762 32 2.25741 32H1.30079C0.388056 32 -0.236059 31.0781 0.102933 30.2307C0.163893 30.0783 0.19521 29.9156 0.19521 29.7515V24.6155C0.19521 24.2067 0.245347 23.7994 0.344495 23.4028L1.89203 17.2127C2.09107 16.4165 2.09107 15.5835 1.89203 14.7873L0.344495 8.59714C0.245347 8.20054 0.19521 7.79328 0.19521 7.38447L0.195188 2.03872C0.195186 1.88133 0.162151 1.72568 0.0982256 1.58185Z" fill="url(#paint0_linear_325_64)"/>
<defs>
<linearGradient id="paint0_linear_325_64" x1="-25.8052" y1="16" x2="4.19482" y2="16" gradientUnits="userSpaceOnUse">
<stop stop-color="white"/>
<stop offset="1" stop-color="#7000FF"/>
</linearGradient>
</defs>
</svg>
