<svg width="6" height="32" viewBox="0 0 6 32" fill="none" xmlns="http://www.w3.org/2000/svg">
<path d="M0.0982256 1.58185C-0.232406 0.837927 0.31214 0 1.12623 0H2.30451C3.34871 0 4.19521 0.846492 4.19521 1.89069V7.44445C4.19521 7.81368 4.23611 8.18177 4.31715 8.54199L5.74824 14.9024C5.91084 15.6251 5.91084 16.3749 5.74824 17.0975L4.31715 23.458C4.23611 23.8182 4.19521 24.1863 4.19521 24.5555V30.0622C4.19521 31.1324 3.32762 32 2.25741 32H1.30079C0.388053 32 -0.236062 31.0781 0.102929 30.2307C0.163889 30.0783 0.19521 29.9156 0.19521 29.7515V24.6155C0.19521 24.2067 0.245343 23.7994 0.344491 23.4028L1.89202 17.2127C2.09106 16.4165 2.09106 15.5835 1.89202 14.7873L0.344491 8.59714C0.245343 8.20054 0.19521 7.79328 0.19521 7.38447L0.195188 2.03872C0.195186 1.88133 0.162151 1.72568 0.0982256 1.58185Z" fill="url(#paint0_linear_325_63)"/>
<defs>
<linearGradient id="paint0_linear_325_63" x1="-19.8052" y1="16" x2="10.1948" y2="16" gradientUnits="userSpaceOnUse">
<stop stop-color="white"/>
<stop offset="1" stop-color="#7000FF"/>
</linearGradient>
</defs>
</svg>
