<svg width="24" height="24" viewBox="0 0 24 24" fill="none" xmlns="http://www.w3.org/2000/svg">
<path d="M11.9616 1.20002C13.9658 1.19295 15.9324 1.74368 17.6413 2.79061C19.3503 3.83754 20.7343 5.33935 21.6384 7.12802L12.6984 6.66002C10.1664 6.51602 7.75679 7.93682 6.93839 10.3224L3.59999 5.21282C4.60845 3.96459 5.88239 2.95677 7.32919 2.26263C8.776 1.5685 10.3593 1.2055 11.964 1.20002H11.9616ZM2.95919 6.08162L7.02239 14.0712C8.15999 16.32 10.5888 17.6976 13.0944 17.2272L10.32 22.6632C8.53773 22.3831 6.85403 21.6609 5.42267 20.5627C3.9913 19.4644 2.85786 18.0251 2.12586 16.3761C1.39385 14.7272 1.08661 12.9211 1.23218 11.1228C1.37775 9.32453 1.97149 7.59139 2.95919 6.08162ZM22.08 8.11682C22.7288 9.80065 22.9454 11.6202 22.71 13.4093C22.4745 15.1984 21.7946 16.9 20.7322 18.3586C19.6697 19.8172 18.2588 20.9864 16.6282 21.7593C14.9976 22.5322 13.1993 22.8843 11.3976 22.7832L16.2768 15.276C17.664 13.1424 17.64 10.3584 15.9888 8.43122L22.08 8.11682ZM12 8.35682C12.72 8.35682 13.4238 8.57029 14.0225 8.97024C14.6211 9.37019 15.0878 9.93866 15.3634 10.6038C15.6391 11.2689 15.7113 12.0008 15.571 12.707C15.4307 13.4132 15.0842 14.0619 14.5753 14.5712C14.0663 15.0805 13.4178 15.4274 12.7117 15.5682C12.0057 15.7089 11.2737 15.6372 10.6084 15.362C9.94307 15.0868 9.37429 14.6205 8.97395 14.0221C8.5736 13.4237 8.35967 12.72 8.35919 12C8.35856 11.5217 8.4523 11.048 8.63505 10.606C8.81779 10.164 9.08595 9.76238 9.42415 9.42417C9.76236 9.08597 10.164 8.81781 10.606 8.63507C11.048 8.45233 11.5217 8.35859 12 8.35922V8.35682Z" fill="#9E9E9E"/>
</svg>
