<svg width="24" height="24" viewBox="0 0 24 24" fill="none" xmlns="http://www.w3.org/2000/svg">
<path d="M14.5944 22.5072C11.9544 22.6464 9.48001 20.7576 8.81041 18.1176C8.58119 17.2718 8.53455 16.3869 8.67358 15.5216C8.81261 14.6564 9.13414 13.8307 9.61681 13.0992C9.67681 13.0104 9.71521 12.8592 9.85681 12.8856C9.96241 12.912 9.94081 13.0416 9.95041 13.1256C10.2168 15.132 11.3616 16.5312 13.0992 17.4456C15.5712 18.7392 18.084 18.6744 20.5824 17.4768C20.8224 17.3616 21.0912 17.1144 21.3456 17.388C21.6 17.6616 21.3456 17.94 21.2016 18.1752C19.8672 20.22 18.1512 21.7752 15.696 22.356C15.456 22.4112 15.216 22.452 14.976 22.488C14.8632 22.5 14.7288 22.5072 14.5944 22.5072Z" fill="#9E9E9E"/>
<path d="M12.4368 10.1329C12.9864 10.2481 9.76081 7.57211 5.79121 8.17451C4.40881 8.38331 1.23121 9.58091 1.49761 13.8529C1.97521 21.5185 8.19601 22.6393 10.2672 22.8001C10.2988 22.8027 10.3305 22.7991 10.3606 22.7894C10.3907 22.7797 10.4187 22.7642 10.4428 22.7436C10.4668 22.7231 10.4866 22.698 10.501 22.6698C10.5154 22.6416 10.524 22.6109 10.5264 22.5793C10.5293 22.544 10.5244 22.5084 10.512 22.4752C10.4995 22.442 10.4799 22.412 10.4544 22.3873C9.36001 21.3289 6.33361 19.4617 7.01281 15.6121C7.62241 12.1345 10.1184 9.64331 12.4368 10.1329Z" fill="#9E9E9E"/>
<path d="M14.9064 14.9257C15.8088 15.2377 17.2512 15.4057 19.4088 14.8681H19.4232C20.2103 14.5711 20.9049 14.0713 21.4364 13.4192C21.9679 12.7671 22.3175 11.9861 22.4496 11.1553C23.0592 6.98645 19.5456 1.39205 13.3968 1.20005C4.87203 0.960053 2.53203 6.51365 2.08563 7.88405C2.07933 7.90311 2.07933 7.92369 2.08562 7.94276C2.09191 7.96182 2.10417 7.97835 2.12057 7.98992C2.13698 8.00148 2.15667 8.00747 2.17674 8.00699C2.19681 8.00651 2.21619 7.99959 2.23203 7.98725C3.22323 7.19525 7.23843 4.46165 12.2208 7.59365C15.0432 9.84005 14.6904 12.0937 14.1816 13.3033C14.1177 13.4491 14.0834 13.6063 14.0808 13.7656C14.0783 13.9249 14.1074 14.0831 14.1666 14.231C14.2258 14.3788 14.3139 14.5135 14.4256 14.627C14.5374 14.7405 14.6707 14.8306 14.8176 14.8921L14.9064 14.9257Z" fill="#9E9E9E"/>
</svg>
