<svg width="24" height="24" viewBox="0 0 24 24" fill="none" xmlns="http://www.w3.org/2000/svg">
<g clip-path="url(#clip0_235_672)">
<path d="M21.5838 4.69948C21.2626 4.27929 20.9138 3.88092 20.5398 3.50698C20.2423 3.19344 19.9235 2.90075 19.5858 2.63098C19.7793 2.80048 19.9653 2.97748 20.1408 3.16648C20.7971 3.86526 21.2962 4.69636 21.6048 5.60398C22.2318 7.49848 22.1898 9.86998 20.9943 11.7315C19.5693 13.9515 17.2473 15.0465 14.7378 14.9925C14.6287 14.993 14.5197 14.99 14.4108 14.9835C9.90629 14.7135 8.77079 10.1055 11.1138 8.11348C10.4823 7.97848 9.29429 8.24398 8.46779 9.47848C7.72679 10.584 7.76729 12.294 8.22629 13.506C7.93295 12.9081 7.7336 12.2686 7.63529 11.61C7.04279 7.61548 9.73229 4.20748 12.1983 3.36448C10.8678 2.20498 7.53329 2.28448 5.05229 4.10398C3.60629 5.16598 2.57129 6.67498 2.02679 8.47348C2.10629 7.46398 2.48879 5.95648 3.27329 4.41748C2.44529 4.84498 1.38629 6.20248 0.864286 7.45798C0.111286 9.26998 -0.154214 11.436 0.0842862 13.497L0.139786 13.9605C0.448895 15.7515 1.16032 17.4491 2.22049 18.9255C3.28067 20.4018 4.66196 21.6183 6.26037 22.4835C7.85878 23.3487 9.63265 23.84 11.4484 23.9203C13.2642 24.0007 15.0745 23.6681 16.7431 22.9475C18.4117 22.227 19.8951 21.1372 21.0816 19.7604C22.2681 18.3835 23.1267 16.7554 23.5929 14.9987C24.059 13.2419 24.1205 11.4023 23.7728 9.61833C23.4251 7.83436 22.6771 6.15254 21.5853 4.69948H21.5838ZM21.6048 5.60398C21.2962 4.69636 20.7971 3.86526 20.1408 3.16648C19.3758 2.34148 18.4218 1.71148 17.4108 1.22398C16.5574 0.804279 15.6578 0.486106 14.7303 0.275979C13.0941 -0.0814292 11.4012 -0.0916492 9.76079 0.245979C8.05529 0.605979 6.55529 1.34098 5.60879 2.26198C6.31979 1.82998 7.31129 1.48198 8.01779 1.30198C11.2968 0.476979 14.9073 1.37098 17.3688 3.72748C17.8638 4.19998 18.3078 4.73098 18.6678 5.31448C20.1378 7.69648 19.9983 10.6905 18.8523 12.456C18.0018 13.7685 16.1808 15 14.4813 14.9865C17.0883 15.1215 19.5198 14.0265 20.9943 11.7315C22.1898 9.86998 22.2318 7.49848 21.6048 5.60398Z" fill="#9E9E9E"/>
</g>
<defs>
<clipPath id="clip0_235_672">
<rect width="24" height="24" fill="white"/>
</clipPath>
</defs>
</svg>
