<svg width="24" height="24" viewBox="0 0 24 24" fill="none" xmlns="http://www.w3.org/2000/svg">
<path d="M20.048 3.05635C18.6463 2.10078 16.9956 1.58849 15.3056 1.58456C12.4891 1.58456 9.99936 3.04302 8.25257 5.24003C6.83288 7.1033 6.0489 9.38243 6.01837 11.7351V12.295C6.04738 14.6417 6.8266 16.9157 8.2394 18.7767C9.98619 20.9604 12.4759 22.4189 15.3056 22.4189C16.9955 22.4143 18.6461 21.9021 20.048 20.9471C17.877 22.9188 15.061 24.0064 12.144 24H11.5749C8.43048 23.9236 5.44483 22.5863 3.27476 20.2821C1.10469 17.978 -0.0720477 14.8959 0.00341816 11.7138C0.078884 8.53162 1.40037 5.51016 3.67717 3.31405C5.95397 1.11794 8.99957 -0.0729121 12.144 0.00345917H12.1835C15.0862 0.0106231 17.8852 1.09712 20.048 3.05635ZM24 12.0017C24.0002 13.6618 23.659 15.3037 22.9981 16.8231C22.3373 18.3425 21.3712 19.7061 20.1613 20.8271C19.2773 21.3762 18.2608 21.6677 17.2236 21.6696C16.0097 21.6578 14.8301 21.2605 13.8512 20.5338C16.536 19.542 18.5225 16.1025 18.5225 12.0017C18.5225 7.90098 16.5518 4.46148 13.8644 3.46962C14.8444 2.75601 16.019 2.36755 17.2263 2.35778C18.2837 2.36174 19.3192 2.66364 20.2166 3.22966C21.4099 4.34953 22.3619 5.70668 23.0129 7.21611C23.6639 8.72555 24 10.3548 24 12.0017Z" fill="#9E9E9E"/>
</svg>
