<svg width="24" height="24" viewBox="0 0 24 24" fill="none" xmlns="http://www.w3.org/2000/svg">
<path d="M12.7093 11.96C12.7169 12.0677 12.7027 12.1758 12.6674 12.2778C12.6321 12.3798 12.5765 12.4736 12.504 12.5536C12.4315 12.6336 12.3436 12.6981 12.2455 12.7432C12.1474 12.7882 12.0412 12.813 11.9333 12.816C11.7169 12.8248 11.5059 12.7473 11.3466 12.6006C11.1873 12.4538 11.0928 12.2497 11.084 12.0333C11.0752 11.8169 11.1527 11.6058 11.2994 11.4466C11.4462 11.2873 11.6503 11.1928 11.8667 11.184C11.9733 11.1783 12.0799 11.1939 12.1804 11.23C12.2809 11.2662 12.3731 11.322 12.4516 11.3944C12.5301 11.4667 12.5934 11.554 12.6376 11.6511C12.6819 11.7483 12.7063 11.8533 12.7093 11.96ZM12.9093 12.736L17.6 4.95467C16.968 5.544 11.1013 10.9333 10.9333 11.224L6.26667 18.992C6.88267 18.416 12.7627 12.992 12.9093 12.736ZM21.576 12C21.5774 13.7525 21.0958 15.4714 20.184 16.968C19.9291 16.7931 19.6617 16.6371 19.384 16.5013C19.3382 16.502 19.2946 16.5205 19.2622 16.5529C19.2298 16.5852 19.2114 16.6289 19.2107 16.6747C19.2107 16.848 19.84 17.1707 20.0107 17.264C18.6771 19.2778 16.6355 20.7169 14.2907 21.296L14.0773 20.3973C14.0613 20.2773 13.9813 20.264 13.8747 20.264C13.768 20.264 13.728 20.3973 13.7413 20.464L13.9573 21.3733C13.3137 21.5085 12.6577 21.5764 12 21.576C10.2421 21.5709 8.51914 21.084 7.01867 20.168C7.23852 19.8602 7.4355 19.5366 7.608 19.2C7.60732 19.1542 7.58883 19.1105 7.55647 19.0782C7.52412 19.0458 7.48043 19.0273 7.43467 19.0267C7.248 19.0267 6.84534 19.8267 6.72534 19.992C4.69325 18.6445 3.24764 16.5766 2.68 14.2053L3.60534 14.0053C3.64878 13.9951 3.68671 13.9688 3.71146 13.9316C3.73622 13.8945 3.74594 13.8494 3.73867 13.8053C3.73867 13.712 3.60534 13.656 3.52267 13.672L2.61334 13.8667C2.1343 11.4779 2.58955 8.99645 3.88534 6.93333C4.1646 7.13477 4.4598 7.31314 4.768 7.46666C4.79007 7.46774 4.81214 7.46445 4.83293 7.45699C4.85373 7.44953 4.87285 7.43804 4.88919 7.42317C4.90554 7.40831 4.9188 7.39037 4.9282 7.37038C4.93761 7.35039 4.94298 7.32874 4.944 7.30666C4.944 7.11733 4.23467 6.75733 4.072 6.65066C5.43358 4.64097 7.5027 3.21839 9.86667 2.66667L10.0667 3.56533C10.0769 3.60877 10.1032 3.64671 10.1404 3.67146C10.1775 3.69621 10.2226 3.70594 10.2667 3.69867C10.36 3.69867 10.416 3.56533 10.4 3.48267L10.2 2.6C10.7934 2.48645 11.3959 2.42754 12 2.424C13.7919 2.42782 15.547 2.9331 17.0667 3.88267C16.8601 4.15469 16.6814 4.44683 16.5333 4.75467C16.5323 4.7766 16.5356 4.79853 16.5431 4.81917C16.5506 4.83981 16.5621 4.85875 16.577 4.87489C16.5919 4.89102 16.6098 4.90403 16.6298 4.91315C16.6498 4.92227 16.6714 4.92732 16.6933 4.928C16.8827 4.928 17.2427 4.232 17.336 4.06933C19.3309 5.41028 20.749 7.45187 21.3093 9.78933L20.5573 9.94933C20.4373 9.976 20.424 10.056 20.424 10.1627C20.424 10.2693 20.5573 10.312 20.6267 10.2987L21.3893 10.1333C21.511 10.7482 21.5735 11.3732 21.576 12ZM22.7147 12C22.7147 9.88084 22.0863 7.80927 20.9089 6.04725C19.7316 4.28523 18.0582 2.91191 16.1003 2.10094C14.1425 1.28997 11.9881 1.07778 9.90967 1.49121C7.83123 1.90464 5.92206 2.92511 4.42359 4.42359C2.92512 5.92206 1.90465 7.83123 1.49122 9.90967C1.07779 11.9881 1.28998 14.1425 2.10094 16.1003C2.91191 18.0582 4.28524 19.7316 6.04725 20.9089C7.80927 22.0863 9.88084 22.7147 12 22.7147C13.4072 22.715 14.8006 22.4381 16.1007 21.8998C17.4009 21.3614 18.5822 20.5722 19.5772 19.5772C20.5722 18.5822 21.3614 17.4009 21.8998 16.1007C22.4381 14.8006 22.715 13.4072 22.7147 12ZM24 12C24 14.3734 23.2962 16.6934 21.9776 18.6668C20.6591 20.6402 18.7849 22.1783 16.5922 23.0865C14.3995 23.9948 11.9867 24.2324 9.65892 23.7694C7.33115 23.3064 5.19295 22.1635 3.51472 20.4853C1.83649 18.807 0.693604 16.6689 0.230582 14.3411C-0.232441 12.0133 0.00519943 9.60051 0.913451 7.4078C1.8217 5.21508 3.35977 3.34094 5.33316 2.02236C7.30655 0.703787 9.62663 0 12 0C15.1826 0 18.2348 1.26428 20.4853 3.51472C22.7357 5.76515 24 8.8174 24 12Z" fill="#9E9E9E"/>
</svg>
