<svg width="24" height="24" viewBox="0 0 24 24" fill="none" xmlns="http://www.w3.org/2000/svg">
<path d="M6.89063 0C5.06372 0.006347 3.31356 0.735431 2.02247 2.02799C0.731377 3.32055 0.00427684 5.07153 0 6.89844V17.1016C0.00427684 18.9285 0.731377 20.6795 2.02247 21.972C3.31356 23.2646 5.06372 23.9937 6.89063 24H17.1094C18.934 23.9951 20.6826 23.2686 21.9736 21.9791C23.2645 20.6896 23.993 18.9418 24 17.1172V6.89844C23.9957 5.07153 23.2686 3.32055 21.9775 2.02799C20.6864 0.735431 18.9363 0.006347 17.1094 0H6.89063ZM11.6318 4.08438C13.703 3.98997 15.7285 4.71267 17.2722 6.09689C18.8159 7.48111 19.7543 9.41615 19.8854 11.4854C21.2401 12.5521 21.9441 13.6963 21.6854 14.6563C21.4268 15.6163 20.2453 16.2345 18.5146 16.4745C18.0141 16.5431 17.5102 16.5833 17.0052 16.5948C14.9656 16.5961 12.9354 16.3189 10.9708 15.7708C8.99605 15.2479 7.10399 14.4516 5.34948 13.4052L5.33333 13.4078C4.90161 13.1527 4.4889 12.8667 4.09844 12.5521C2.72777 11.4721 2.04244 10.3386 2.29844 9.37865C2.55444 8.41865 3.7389 7.8025 5.4349 7.5625C6.12492 6.53955 7.04471 5.69224 8.12072 5.0883C9.19674 4.48437 10.3991 4.14056 11.6318 4.08438ZM11.4146 5.22344C9.71417 5.36432 8.12885 6.1393 6.97322 7.39459C5.81759 8.64989 5.1761 10.2938 5.17604 12C6.58138 12.944 8.72508 13.8854 11.2104 14.5547C13.7778 15.2384 16.1539 15.5132 17.8677 15.3953C18.4565 14.3794 18.7696 13.2273 18.776 12.0531V12C18.776 11.0597 18.581 10.1296 18.2032 9.26856C17.8255 8.40747 17.2733 7.63408 16.5815 6.99725C15.8897 6.36042 15.0733 5.87398 14.184 5.56866C13.2947 5.26335 12.3517 5.1458 11.4146 5.22344ZM4.86927 8.57083C4.06927 8.76017 3.53583 9.10377 3.42917 9.5651C3.3225 10.0264 3.5654 10.5758 4.13073 11.1438C4.2289 10.2948 4.46112 9.4668 4.81875 8.69063L4.86927 8.57083ZM19.8375 12.7573L19.8214 12.8589C19.7573 13.6563 19.5593 14.4372 19.2354 15.1688C19.9122 14.9634 20.3371 14.6554 20.4563 14.2318C20.5763 13.8051 20.3522 13.288 19.8375 12.7573ZM4.3651 14.1094C4.8582 14.4527 5.37416 14.7619 5.90938 15.0349C6.33637 15.8973 6.94208 16.6588 7.68621 17.269C8.43035 17.8791 9.29586 18.3238 10.2252 18.5735C11.1545 18.8232 12.1264 18.8722 13.0761 18.7171C14.0258 18.5621 14.9316 18.2067 15.7333 17.6745C16.3707 17.6745 16.9892 17.6746 17.5385 17.624C16.5587 18.5933 15.3423 19.2895 14.0102 19.6434C12.6781 19.9973 11.2765 19.9965 9.9448 19.6412C8.61306 19.2859 7.39742 18.5884 6.41861 17.618C5.4398 16.6476 4.73186 15.438 4.3651 14.1094Z" fill="#9E9E9E"/>
</svg>
