<svg width="24" height="24" viewBox="0 0 24 24" fill="none" xmlns="http://www.w3.org/2000/svg">
<path d="M17.5231 15.3418C17.3255 15.3418 17.1323 15.2832 16.9679 15.1735C16.8035 15.0637 16.6754 14.9077 16.5997 14.7251C16.524 14.5425 16.5042 14.3416 16.5427 14.1478C16.5812 13.9539 16.6763 13.7758 16.816 13.636C16.9557 13.4962 17.1337 13.4009 17.3275 13.3623C17.5214 13.3237 17.7223 13.3434 17.9049 13.4189C18.0876 13.4945 18.2437 13.6225 18.3536 13.7868C18.4634 13.9511 18.5221 14.1443 18.5222 14.3419C18.522 14.6069 18.4167 14.8609 18.2294 15.0484C18.0421 15.2358 17.7881 15.3413 17.5231 15.3418ZM6.47688 15.3418C6.27925 15.3418 6.08605 15.2832 5.92171 15.1734C5.75738 15.0636 5.62929 14.9075 5.55364 14.7249C5.47798 14.5424 5.45817 14.3415 5.49669 14.1476C5.53521 13.9538 5.63034 13.7757 5.77006 13.6359C5.90977 13.4961 6.08779 13.4009 6.28162 13.3623C6.47545 13.3237 6.67637 13.3434 6.85899 13.419C7.0416 13.4945 7.19772 13.6226 7.30758 13.7868C7.41745 13.9511 7.47614 14.1443 7.47624 14.3419C7.47599 14.6069 7.37063 14.861 7.18328 15.0485C6.99593 15.2359 6.74189 15.3414 6.47688 15.3418ZM17.8814 9.3216L19.8787 5.86248C19.906 5.81522 19.9238 5.76304 19.931 5.70892C19.9381 5.6548 19.9345 5.5998 19.9204 5.54706C19.9064 5.49432 19.882 5.44487 19.8488 5.40154C19.8156 5.35821 19.7742 5.32184 19.7269 5.29452C19.6797 5.26719 19.6275 5.24944 19.5734 5.24228C19.5192 5.23512 19.4642 5.23869 19.4115 5.25279C19.3588 5.26688 19.3093 5.29123 19.266 5.32444C19.2227 5.35764 19.1863 5.39906 19.159 5.44632L17.1367 8.9496C15.5902 8.244 13.853 7.85088 11.9998 7.85088C10.1465 7.85088 8.40984 8.24448 6.86328 8.9496L4.8408 5.44656C4.81352 5.39928 4.7772 5.35784 4.73391 5.3246C4.69061 5.29136 4.6412 5.26698 4.58848 5.25284C4.53576 5.2387 4.48077 5.23508 4.42666 5.24219C4.37254 5.2493 4.32036 5.267 4.27308 5.29428C4.2258 5.32155 4.18436 5.35788 4.15113 5.40117C4.11789 5.44446 4.0935 5.49388 4.07936 5.5466C4.06522 5.59932 4.0616 5.6543 4.06871 5.70842C4.07582 5.76254 4.09352 5.81472 4.1208 5.862L6.11832 9.32184C2.68896 11.1871 0.3432 14.6592 0 18.7613H24C23.6566 14.6592 21.3108 11.1869 17.8814 9.3216Z" fill="#9E9E9E"/>
</svg>
