<svg width="20" height="20" viewBox="0 0 20 20" fill="none" xmlns="http://www.w3.org/2000/svg">
<path d="M14.6832 8.01666H10.3082C9.96656 8.01666 9.68323 7.73333 9.68323 7.39166C9.68323 7.05 9.96656 6.76666 10.3082 6.76666H14.6832C15.0249 6.76666 15.3082 7.05 15.3082 7.39166C15.3082 7.73333 15.0332 8.01666 14.6832 8.01666Z" fill="#8E8E8E"/>
<path d="M5.9334 8.64996C5.77507 8.64996 5.61674 8.59162 5.49174 8.46662L4.86674 7.84162C4.62507 7.59996 4.62507 7.19996 4.86674 6.95829C5.1084 6.71662 5.5084 6.71662 5.75007 6.95829L5.9334 7.14162L7.36674 5.70829C7.6084 5.46662 8.0084 5.46662 8.25007 5.70829C8.49174 5.94996 8.49174 6.34996 8.25007 6.59162L6.37507 8.46662C6.2584 8.58329 6.10007 8.64996 5.9334 8.64996Z" fill="#8E8E8E"/>
<path d="M14.6832 13.85H10.3082C9.96656 13.85 9.68323 13.5666 9.68323 13.225C9.68323 12.8833 9.96656 12.6 10.3082 12.6H14.6832C15.0249 12.6 15.3082 12.8833 15.3082 13.225C15.3082 13.5666 15.0332 13.85 14.6832 13.85Z" fill="#8E8E8E"/>
<path d="M5.9334 14.4833C5.77507 14.4833 5.61674 14.425 5.49174 14.3L4.86674 13.675C4.62507 13.4333 4.62507 13.0333 4.86674 12.7917C5.1084 12.55 5.5084 12.55 5.75007 12.7917L5.9334 12.975L7.36674 11.5417C7.6084 11.3 8.0084 11.3 8.25007 11.5417C8.49174 11.7833 8.49174 12.1833 8.25007 12.425L6.37507 14.3C6.2584 14.4167 6.10007 14.4833 5.9334 14.4833Z" fill="#8E8E8E"/>
<path d="M12.5001 18.9583H7.50008C2.97508 18.9583 1.04175 17.025 1.04175 12.5V7.49996C1.04175 2.97496 2.97508 1.04163 7.50008 1.04163H12.5001C17.0251 1.04163 18.9584 2.97496 18.9584 7.49996V12.5C18.9584 17.025 17.0251 18.9583 12.5001 18.9583ZM7.50008 2.29163C3.65841 2.29163 2.29175 3.65829 2.29175 7.49996V12.5C2.29175 16.3416 3.65841 17.7083 7.50008 17.7083H12.5001C16.3417 17.7083 17.7084 16.3416 17.7084 12.5V7.49996C17.7084 3.65829 16.3417 2.29163 12.5001 2.29163H7.50008Z" fill="#8E8E8E"/>
</svg>
