<svg width="18" height="18" viewBox="0 0 18 18" fill="none" xmlns="http://www.w3.org/2000/svg">
<path d="M11.9999 9.67512V12.8251C11.9999 15.4501 10.9499 16.5001 8.32488 16.5001H5.17488C2.54988 16.5001 1.49988 15.4501 1.49988 12.8251V9.67512C1.49988 7.05012 2.54988 6.00012 5.17488 6.00012H8.32488C10.9499 6.00012 11.9999 7.05012 11.9999 9.67512Z" stroke="#8D8D8D" stroke-width="1.2" stroke-linecap="round" stroke-linejoin="round"/>
<path d="M16.4999 5.17512V8.32512C16.4999 10.9501 15.4499 12.0001 12.8249 12.0001H11.9999V9.67512C11.9999 7.05012 10.9499 6.00012 8.32494 6.00012H5.99994V5.17512C5.99994 2.55012 7.04994 1.50012 9.67494 1.50012H12.8249C15.4499 1.50012 16.4999 2.55012 16.4999 5.17512Z" stroke="#8D8D8D" stroke-width="1.2" stroke-linecap="round" stroke-linejoin="round"/>
</svg>
