<svg width="20" height="21" viewBox="0 0 20 21" fill="none" xmlns="http://www.w3.org/2000/svg">
<g clip-path="url(#clip0_9_16)">
<path d="M15.4591 5.14144L15.4454 5.13337L15.4136 5.12369C15.4264 5.13446 15.4424 5.14072 15.4591 5.14144Z" fill="white"/>
<path d="M15.4647 5.13915C15.4628 5.13891 15.461 5.13848 15.4592 5.13785C15.4591 5.13906 15.4591 5.14029 15.4592 5.1415C15.4612 5.14123 15.4631 5.14043 15.4647 5.13915Z" fill="white"/>
<path d="M15.4592 5.14224H15.4622V5.14032L15.4592 5.14224Z" fill="white"/>
<path d="M15.6468 6.56765L15.6699 6.55447L15.6785 6.54962L15.6863 6.54129C15.6716 6.54761 15.6583 6.55655 15.6468 6.56765Z" fill="white"/>
<path d="M15.4991 5.17266L15.4765 5.15113L15.4612 5.14279C15.4694 5.15733 15.483 5.16806 15.4991 5.17266Z" fill="white"/>
<path d="M9.81265 19.0376C9.79459 19.0454 9.77877 19.0576 9.76663 19.0731L9.78089 19.0641C9.79059 19.0551 9.8043 19.0447 9.81265 19.0376Z" fill="white"/>
<path d="M13.1147 18.3879C13.1147 18.3676 13.1048 18.3713 13.1072 18.4439C13.1072 18.4381 13.1096 18.4322 13.1107 18.4265C13.112 18.4136 13.1131 18.4009 13.1147 18.3879Z" fill="white"/>
<path d="M12.7722 19.0376C12.7542 19.0454 12.7384 19.0576 12.7262 19.0731L12.7405 19.0641C12.7502 19.0551 12.7639 19.0447 12.7722 19.0376Z" fill="white"/>
<path d="M7.48715 19.1921C7.47344 19.1803 7.45666 19.1724 7.43872 19.1695C7.45325 19.1765 7.46777 19.1835 7.47745 19.1889L7.48715 19.1921Z" fill="white"/>
<path d="M6.9639 18.6909C6.96176 18.6698 6.95525 18.6493 6.94479 18.6307C6.95221 18.65 6.9584 18.6698 6.96336 18.6898L6.9639 18.6909Z" fill="white"/>
<path d="M10.4789 9.72811C9.76046 10.0356 8.9452 10.3843 7.88859 10.3843C7.44659 10.3835 7.00672 10.3228 6.58096 10.2041L7.31174 17.7069C7.3376 18.0204 7.48046 18.3128 7.71194 18.526C7.94342 18.7391 8.24659 18.8573 8.56124 18.8573C8.56124 18.8573 9.5974 18.9111 9.94315 18.9111C10.3153 18.9111 11.431 18.8573 11.431 18.8573C11.7457 18.8573 12.0488 18.739 12.2802 18.5258C12.5116 18.3127 12.6544 18.0204 12.6803 17.7069L13.463 9.41599C13.1132 9.29654 12.7602 9.21716 12.3623 9.21716C11.674 9.2169 11.1195 9.45394 10.4789 9.72811Z" fill="#FFDD00"/>
<path d="M4.31882 6.5271L4.33119 6.53867L4.33927 6.54352C4.33305 6.53734 4.32619 6.53184 4.31882 6.5271Z" fill="white"/>
<path d="M16.8423 5.83464L16.7323 5.27957C16.6335 4.78154 16.4094 4.31095 15.8982 4.13095C15.7343 4.07336 15.5484 4.04862 15.4228 3.92942C15.2971 3.81023 15.26 3.62512 15.2309 3.45345C15.1771 3.13838 15.1265 2.82304 15.0714 2.50851C15.0238 2.2381 14.9861 1.93433 14.862 1.68626C14.7006 1.35316 14.3656 1.15836 14.0325 1.02948C13.8618 0.965766 13.6877 0.911866 13.5108 0.868046C12.6786 0.648491 11.8036 0.567773 10.9475 0.521764C9.91986 0.46506 8.88949 0.482144 7.8643 0.572885C7.10125 0.642303 6.29756 0.726251 5.57245 0.990199C5.30743 1.08679 5.03432 1.20276 4.83281 1.40751C4.58553 1.65908 4.50481 2.04815 4.68535 2.36187C4.8137 2.58465 5.0311 2.74205 5.26169 2.84618C5.56203 2.98035 5.8757 3.08244 6.19748 3.15076C7.09345 3.34879 8.02144 3.42654 8.93678 3.45965C9.95132 3.50058 10.9675 3.4674 11.9772 3.36035C12.2269 3.33291 12.4761 3.29999 12.7249 3.26162C13.0179 3.21667 13.206 2.83353 13.1196 2.56662C13.0163 2.24753 12.7386 2.12376 12.4246 2.17192C12.3783 2.17918 12.3323 2.1859 12.286 2.19262L12.2527 2.19747C12.1463 2.21094 12.04 2.22348 11.9336 2.23514C11.7139 2.25882 11.4936 2.27819 11.2728 2.29327C10.7782 2.3277 10.2824 2.34357 9.78675 2.34438C9.29975 2.34438 8.81248 2.33065 8.32655 2.29864C8.10485 2.28412 7.88367 2.26563 7.66305 2.24321C7.56269 2.23272 7.46259 2.22169 7.36252 2.20931L7.26725 2.19721L7.24655 2.19425L7.1478 2.17999C6.946 2.14958 6.7442 2.11461 6.54456 2.07236C6.52442 2.06789 6.50639 2.05669 6.49348 2.04059C6.48056 2.02449 6.47352 2.00448 6.47352 1.98384C6.47352 1.9632 6.48056 1.94319 6.49348 1.92709C6.50639 1.911 6.52442 1.89979 6.54456 1.89532H6.54833C6.72134 1.85846 6.89568 1.82698 7.07057 1.79953C7.12888 1.79039 7.18735 1.78142 7.246 1.77263H7.24761C7.35712 1.76536 7.46718 1.74572 7.57614 1.73281C8.52422 1.63419 9.47793 1.60057 10.4306 1.63218C10.8931 1.64563 11.3554 1.67281 11.8157 1.71962C11.9147 1.72985 12.0132 1.74061 12.1117 1.75272C12.1494 1.75729 12.1873 1.76267 12.2253 1.76725L12.3017 1.77828C12.5244 1.81146 12.7461 1.85173 12.9665 1.89909C13.2931 1.97012 13.7126 1.99326 13.8579 2.35111C13.9042 2.46465 13.9252 2.59084 13.9507 2.71003L13.9833 2.86205C13.9841 2.86477 13.9848 2.86757 13.9852 2.87039C14.0621 3.22914 14.1392 3.58789 14.2163 3.94664C14.222 3.97314 14.2221 4.00052 14.2167 4.02707C14.2113 4.05364 14.2005 4.07879 14.1849 4.10099C14.1694 4.12318 14.1494 4.14193 14.1263 4.15606C14.1032 4.1702 14.0774 4.17941 14.0506 4.18315H14.0484L14.0013 4.18961L13.9548 4.19578C13.8073 4.21499 13.6597 4.23292 13.5119 4.24961C13.2208 4.28279 12.9292 4.31148 12.6372 4.33571C12.0569 4.38395 11.4755 4.41561 10.8929 4.43069C10.596 4.43857 10.2992 4.44226 10.0025 4.44171C8.82162 4.44079 7.64173 4.37214 6.46869 4.23614C6.34169 4.22108 6.2147 4.20493 6.08769 4.18853C6.18617 4.20118 6.01612 4.17883 5.98169 4.174C5.90097 4.16269 5.82025 4.15095 5.73953 4.13875C5.46858 4.09811 5.19926 4.04807 4.92885 4.00421C4.60194 3.9504 4.28929 3.97732 3.9936 4.13875C3.75087 4.27158 3.55442 4.47525 3.43045 4.72262C3.30292 4.98629 3.26498 5.27338 3.20794 5.55671C3.1509 5.84002 3.06211 6.14487 3.09574 6.43572C3.16812 7.06345 3.60696 7.57358 4.23817 7.68767C4.83199 7.79528 5.42904 7.88246 6.02769 7.95672C8.37937 8.24474 10.7552 8.27919 13.1142 8.0595C13.3063 8.04157 13.4982 8.02202 13.6897 8.00085C13.7496 7.99428 13.8101 8.00116 13.867 8.02102C13.9238 8.04088 13.9754 8.0732 14.0182 8.11561C14.0609 8.15802 14.0936 8.20945 14.1138 8.26612C14.1341 8.3228 14.1415 8.3833 14.1353 8.44318L14.0756 9.02382C13.9552 10.1971 13.8349 11.3703 13.7145 12.5434C13.5889 13.7753 13.4626 15.0072 13.3354 16.2389C13.2995 16.5859 13.2636 16.9327 13.2278 17.2794C13.1933 17.6209 13.1885 17.973 13.1236 18.3105C13.0214 18.8411 12.6622 19.1669 12.1381 19.2861C11.6579 19.3954 11.1673 19.4528 10.6749 19.4572C10.129 19.4601 9.58334 19.4359 9.03742 19.4389C8.45462 19.4422 7.74081 19.3884 7.29094 18.9546C6.89568 18.5737 6.84106 17.9771 6.78725 17.4612C6.71551 16.7784 6.64439 16.0956 6.57388 15.4129L6.17837 11.6168L5.9225 9.16051C5.91818 9.11988 5.91388 9.07979 5.90985 9.03888C5.87917 8.74589 5.67173 8.45907 5.34481 8.47386C5.065 8.48623 4.74697 8.72409 4.77979 9.03888L4.96947 10.8599L5.36177 14.6267C5.47352 15.6967 5.585 16.7668 5.69621 17.8372C5.71775 18.0422 5.73792 18.2478 5.76051 18.4528C5.88349 19.5732 6.73909 20.177 7.79865 20.3469C8.4175 20.4465 9.0514 20.467 9.67939 20.4772C10.4844 20.4902 11.2975 20.5211 12.0894 20.3752C13.2628 20.1599 14.1431 19.3765 14.2688 18.1612C14.3046 17.8103 14.3405 17.4594 14.3764 17.1083C14.4957 15.9474 14.6148 14.7864 14.7337 13.6253L15.1228 9.83155L15.3012 8.09287C15.31 8.00665 15.3464 7.92559 15.405 7.86168C15.4635 7.79777 15.5411 7.75439 15.6262 7.73797C15.9617 7.67259 16.2824 7.56093 16.5211 7.30559C16.901 6.89905 16.9766 6.369 16.8423 5.83464ZM4.22095 6.20972C4.22607 6.20729 4.21665 6.25114 4.21261 6.27159C4.21181 6.24065 4.21342 6.2132 4.22095 6.20972ZM4.25351 6.46155C4.2562 6.45966 4.26427 6.47044 4.27261 6.48335C4.25997 6.4715 4.2519 6.46263 4.25324 6.46155H4.25351ZM4.28553 6.50379C4.30329 6.53581 4.2971 6.52343 4.28553 6.50379ZM4.34983 6.55599H4.35145C4.35145 6.55788 4.35441 6.55976 4.35548 6.56165C4.3537 6.55957 4.35172 6.55768 4.34957 6.55599H4.34983ZM15.6106 6.47796C15.49 6.59258 15.3084 6.64585 15.1289 6.6725C13.1164 6.97115 11.0745 7.12237 9.03983 7.05564C7.58367 7.00587 6.14286 6.84415 4.70123 6.64047C4.55997 6.62057 4.40687 6.59474 4.30974 6.49061C4.12678 6.29419 4.21665 5.89868 4.26427 5.66137C4.30786 5.44396 4.39127 5.15419 4.64984 5.12324C5.05343 5.07589 5.52212 5.2462 5.92142 5.30674C6.40214 5.3801 6.88466 5.43885 7.36896 5.48298C9.43589 5.67133 11.5375 5.64199 13.5953 5.36648C13.9704 5.31606 14.3441 5.2575 14.7165 5.19078C15.0482 5.13131 15.416 5.01966 15.6165 5.36324C15.754 5.59733 15.7723 5.91051 15.751 6.175C15.7445 6.29023 15.6941 6.39861 15.6103 6.47796H15.6106Z" fill="white"/>
</g>
<defs>
<clipPath id="clip0_9_16">
<rect width="20" height="20" fill="white" transform="translate(0 0.489075)"/>
</clipPath>
</defs>
</svg>
