<svg width="18" height="19" viewBox="0 0 18 19" fill="none" xmlns="http://www.w3.org/2000/svg">
<path d="M9.75004 11.5904C9.33582 11.5904 9.00004 11.9262 9.00004 12.3404C9.00004 12.7546 9.33582 13.0904 9.75004 13.0904C10.1643 13.0904 10.5 12.7546 10.5 12.3404C10.5 11.9262 10.1643 11.5904 9.75004 11.5904Z" fill="#9EFF00"/>
<path d="M7.50004 13.0904C7.08582 13.0904 6.75004 13.4262 6.75004 13.8404C6.75004 14.2546 7.08582 14.5904 7.50004 14.5904C7.91425 14.5904 8.25004 14.2546 8.25004 13.8404C8.25004 13.4262 7.91425 13.0904 7.50004 13.0904Z" fill="#9EFF00"/>
<path fill-rule="evenodd" clip-rule="evenodd" d="M10.8699 2.77791L10.8677 2.77791H7.13239L7.13017 2.77791H6.37504C6.06438 2.77791 5.81254 3.02975 5.81254 3.34041C5.81254 3.65107 6.06438 3.90291 6.37504 3.90291H6.56989V7.71817C6.56989 8.80895 6.24183 9.87451 5.62834 10.7764L3.30799 14.1876C2.71876 15.0538 3.26193 16.2359 4.30301 16.353C7.42452 16.7042 10.5756 16.7042 13.6971 16.353C14.7381 16.2359 15.2813 15.0538 14.6921 14.1876L12.3717 10.7764C11.7582 9.87451 11.4302 8.80895 11.4302 7.71817V3.90291H11.625C11.9357 3.90291 12.1875 3.65107 12.1875 3.34041C12.1875 3.02975 11.9357 2.77791 11.625 2.77791H10.8699ZM4.42878 15.2351C7.4667 15.5769 10.5334 15.5769 13.5713 15.2351C13.7707 15.2127 13.8748 14.9862 13.7619 14.8203L11.4415 11.4092C11.2763 11.1663 11.1283 10.9136 10.998 10.6529H7.00212C6.87179 10.9136 6.72374 11.1663 6.55853 11.4092L4.23819 14.8203C4.12532 14.9862 4.22937 15.2127 4.42878 15.2351ZM7.44042 9.52791H10.5597C10.3918 8.94271 10.3052 8.33376 10.3052 7.71817V3.90291L7.69489 3.90291V7.71817C7.69489 8.33377 7.60831 8.94271 7.44042 9.52791Z" fill="#9EFF00"/>
</svg>
