<svg width="20" height="21" viewBox="0 0 20 21" fill="none" xmlns="http://www.w3.org/2000/svg">
<g clip-path="url(#clip0_9_33)">
<path d="M10 0.476013C15.525 0.476013 20 4.95101 20 10.476C19.9995 12.5713 19.3419 14.6136 18.1198 16.3155C16.8977 18.0175 15.1727 19.2933 13.1875 19.9635C12.6875 20.0635 12.5 19.751 12.5 19.4885C12.5 19.151 12.5125 18.076 12.5125 16.7385C12.5125 15.801 12.2 15.201 11.8375 14.8885C14.0625 14.6385 16.4 13.7885 16.4 9.95101C16.4 8.85101 16.0125 7.96351 15.375 7.26351C15.475 7.01351 15.825 5.98851 15.275 4.61351C15.275 4.61351 14.4375 4.33851 12.525 5.63851C11.725 5.41351 10.875 5.30101 10.025 5.30101C9.175 5.30101 8.325 5.41351 7.525 5.63851C5.6125 4.35101 4.775 4.61351 4.775 4.61351C4.225 5.98851 4.575 7.01351 4.675 7.26351C4.0375 7.96351 3.65 8.86351 3.65 9.95101C3.65 13.776 5.975 14.6385 8.2 14.8885C7.9125 15.1385 7.65 15.576 7.5625 16.226C6.9875 16.4885 5.55 16.9135 4.65 15.401C4.4625 15.101 3.9 14.3635 3.1125 14.376C2.275 14.3885 2.775 14.851 3.125 15.0385C3.55 15.276 4.0375 16.1635 4.15 16.451C4.35 17.0135 5 18.0885 7.5125 17.626C7.5125 18.4635 7.525 19.251 7.525 19.4885C7.525 19.751 7.3375 20.051 6.8375 19.9635C4.8458 19.3006 3.11342 18.0273 1.88611 16.3243C0.658808 14.6213 -0.0011006 12.5752 1.37789e-06 10.476C1.37789e-06 4.95101 4.475 0.476013 10 0.476013Z" fill="white"/>
</g>
<defs>
<clipPath id="clip0_9_33">
<rect width="20" height="20" fill="white" transform="translate(0 0.476013)"/>
</clipPath>
</defs>
</svg>
