<svg width="35" height="33" viewBox="0 0 35 33" fill="none" xmlns="http://www.w3.org/2000/svg">
<path d="M33.7791 17.7035V17.7035C33.9655 17.7035 34.0587 17.7035 34.1485 17.72C34.5627 17.7963 34.9185 18.1814 34.962 18.6003C34.9714 18.6912 34.9653 18.7686 34.953 18.9234C34.6588 22.6457 32.9921 25.3427 30.2319 28.1374C27.4835 30.9201 23.8537 32.6051 20.0069 32.9136C19.7904 32.931 19.6821 32.9397 19.5644 32.921C19.1859 32.861 18.8389 32.5408 18.7489 32.1683C18.7209 32.0525 18.7209 31.9276 18.7209 31.6777V31.6777C18.7209 31.3957 18.7209 31.2547 18.7433 31.1506C18.8239 30.776 19.0535 30.5236 19.4188 30.4078C19.5202 30.3757 19.6823 30.3602 20.0064 30.3294C23.1778 30.0277 26.1625 28.6165 28.4338 26.3169C30.6622 24.0606 31.9692 22.0226 32.2814 19.126C32.3307 18.6691 32.3553 18.4407 32.4188 18.2976C32.5433 18.0174 32.7353 17.845 33.0272 17.7513C33.1762 17.7035 33.3772 17.7035 33.7791 17.7035V17.7035Z" fill="white" fill-opacity="0.4"/>
<path d="M33.779 15.8721V15.8721C33.9659 15.8721 34.0593 15.8721 34.149 15.8556C34.5631 15.7794 34.9179 15.3967 34.9624 14.9779C34.9721 14.8872 34.9661 14.8089 34.9542 14.6522C34.6634 10.8272 32.9959 7.62622 30.2319 4.8276C27.4835 2.04492 23.8538 0.359966 20.007 0.0514548C19.7904 0.0340852 19.6821 0.0254004 19.5644 0.0440454C19.1859 0.104015 18.8389 0.424292 18.7489 0.796774C18.7209 0.912582 18.7209 1.03749 18.7209 1.28731V1.28731C18.7209 1.56936 18.7209 1.71039 18.7433 1.81442C18.824 2.18905 19.0535 2.44147 19.4188 2.55724C19.5203 2.58939 19.6823 2.60481 20.0064 2.63564C23.1778 2.93736 26.1625 4.34851 28.4338 6.64817C30.6688 8.91109 31.8238 11.4334 32.2233 14.4538C32.2879 14.9417 32.3201 15.1856 32.4076 15.3475C32.5277 15.5698 32.6953 15.7166 32.9314 15.8066C33.1034 15.8721 33.3286 15.8721 33.779 15.8721V15.8721Z" fill="white" fill-opacity="0.4"/>
<path d="M18.7209 5.64775C18.7209 5.43689 18.7209 5.33145 18.7447 5.22427C18.8252 4.86204 19.1819 4.52085 19.5473 4.45644C19.6554 4.43738 19.734 4.44085 19.891 4.44781C20.8887 4.49198 21.6759 4.73227 22.8341 5.13118C24.404 5.67192 25.8448 6.53246 27.0653 7.6584C28.2857 8.78435 29.2593 10.1512 29.9246 11.6726C30.5898 13.1941 30.9323 14.8369 30.9302 16.4974C30.9281 18.158 30.5817 19.8 29.9126 21.3197C29.2436 22.8395 28.2666 24.204 27.0434 25.3269C25.8201 26.4498 24.3772 27.3068 22.8059 27.8436C21.6481 28.2392 20.877 28.4777 19.8895 28.52C19.7321 28.5267 19.6535 28.5301 19.5449 28.5107C19.181 28.4456 18.8255 28.105 18.745 27.7443C18.7209 27.6366 18.7209 27.5307 18.7209 27.3189V27.3189C18.7209 27.0648 18.7209 26.9378 18.7421 26.8365C18.8223 26.4531 19.0831 26.1772 19.4614 26.0756C19.5614 26.0487 19.7053 26.0406 19.9931 26.0244C20.6693 25.9863 21.2232 25.8831 22.0407 25.6038C23.3022 25.1728 24.4607 24.4848 25.4427 23.5833C26.4248 22.6817 27.2092 21.5863 27.7463 20.3661C28.2835 19.146 28.5616 17.8277 28.5633 16.4945C28.565 15.1614 28.29 13.8424 27.7559 12.6209C27.2218 11.3994 26.4402 10.302 25.4603 9.39805C24.4805 8.49408 23.3238 7.8032 22.0633 7.36906C21.2432 7.08661 20.6784 6.98102 19.9915 6.94171C19.7046 6.92529 19.5611 6.91708 19.4617 6.89043C19.0826 6.78869 18.8218 6.5125 18.7418 6.12815C18.7209 6.02745 18.7209 5.90088 18.7209 5.64775V5.64775Z" fill="white" fill-opacity="0.6"/>
<path d="M12.8198 29.8629C12.8198 31.0489 12.8198 31.6419 12.3994 31.9409C11.9791 32.2399 11.4589 32.0593 10.4184 31.698C8.72241 31.1091 6.67253 30.0787 4.67524 28.0814C0.912514 24.3187 2.83116e-05 20.6944 2.79816e-05 16.3229C2.76516e-05 11.9515 1.73658 7.75907 4.82766 4.66799C6.62011 2.87554 8.74748 1.79752 10.3773 1.16841C11.4265 0.763444 11.9511 0.560961 12.3854 0.858895C12.8198 1.15683 12.8198 1.76073 12.8198 2.96854L12.8198 15.8721V29.8629Z" fill="white"/>
<path d="M14.6512 2.03191C14.6512 1.16363 14.6512 0.729486 14.9131 0.442961C15.1751 0.156437 15.6075 0.117602 16.4723 0.0399321L16.9169 0V0C17.0132 0 17.0912 0.0780304 17.0912 0.174286V32.7908C17.0912 32.8871 17.0132 32.9651 16.9169 32.9651V32.9651L16.4723 32.9252C15.6075 32.8475 15.1751 32.8087 14.9131 32.5221C14.6512 32.2356 14.6512 31.8015 14.6512 30.9332V2.03191Z" fill="white" fill-opacity="0.8"/>
</svg>
