<svg width="30" height="32" viewBox="0 0 30 32" fill="none" xmlns="http://www.w3.org/2000/svg">
<path d="M1.96397e-05 5L1.17839e-05 3.00001C5.27583e-06 1.34315 1.34315 0 3.00001 0H5.00002H7.00001H9.00001C10.6569 0 12 1.34314 12 2.99999L12 5V7.38447C12 7.79327 12.0501 8.20054 12.1493 8.59714L13.6968 14.7873C13.8959 15.5835 13.8959 16.4165 13.6968 17.2127L12.1493 23.4028C12.0501 23.7994 12 24.2067 12 24.6155V27V29C12 30.6568 10.6569 32 9.00001 32H7.00001H5.00002H3C1.34315 32 9.77003e-07 30.6568 2.1822e-06 29L1.96397e-05 5Z" fill="url(#paint0_linear_172_52)"/>
<path d="M13.903 1.58185C13.5724 0.837927 14.117 0 14.931 0H16.1093C17.1535 0 18 0.846492 18 1.89069V7.44445C18 7.81368 18.0409 8.18177 18.122 8.54199L19.5531 14.9024C19.7157 15.6251 19.7157 16.3749 19.5531 17.0975L18.122 23.458C18.0409 23.8182 18 24.1863 18 24.5555V30.0622C18 31.1324 17.1324 32 16.0622 32H15.1056C14.1929 32 13.5688 31.0781 13.9077 30.2307C13.9687 30.0783 14 29.9156 14 29.7515V24.6155C14 24.2067 14.0502 23.7994 14.1493 23.4028L15.6968 17.2127C15.8959 16.4165 15.8959 15.5835 15.6968 14.7873L14.1493 8.59714C14.0502 8.20054 14 7.79328 14 7.38447L14 2.03872C14 1.88133 13.967 1.72568 13.903 1.58185Z" fill="url(#paint1_linear_172_52)"/>
<path d="M19.903 1.58185C19.5724 0.837927 20.1169 0 20.931 0H22.1093C23.1535 0 24 0.846492 24 1.89069V7.44445C24 7.81368 24.0409 8.18177 24.122 8.54199L25.553 14.9024C25.7156 15.6251 25.7156 16.3749 25.553 17.0975L24.122 23.458C24.0409 23.8182 24 24.1863 24 24.5555V30.0622C24 31.1324 23.1324 32 22.0622 32H21.1056C20.1929 32 19.5687 31.0781 19.9077 30.2307C19.9687 30.0783 20 29.9156 20 29.7515V24.6155C20 24.2067 20.0501 23.7994 20.1493 23.4028L21.6968 17.2127C21.8959 16.4165 21.8959 15.5835 21.6968 14.7873L20.1493 8.59714C20.0501 8.20054 20 7.79328 20 7.38447L20 2.03872C20 1.88133 19.967 1.72568 19.903 1.58185Z" fill="url(#paint2_linear_172_52)"/>
<path d="M25.903 1.58185C25.5724 0.837927 26.117 0 26.931 0H28.1093C29.1535 0 30 0.846492 30 1.89069V30.0622C30 31.1324 29.1324 32 28.0622 32H27.1056C26.1929 32 25.5688 31.0781 25.9077 30.2307C25.9687 30.0783 26 29.9156 26 29.7515V24.6155C26 24.2067 26.0502 23.7994 26.1493 23.4028L27.6968 17.2127C27.8959 16.4165 27.8959 15.5835 27.6968 14.7873L26.1493 8.59714C26.0502 8.20054 26 7.79328 26 7.38447L26 2.03872C26 1.88133 25.967 1.72568 25.903 1.58185Z" fill="url(#paint3_linear_172_52)"/>
<defs>
<linearGradient id="paint0_linear_172_52" x1="5.82282e-07" y1="16" x2="30" y2="16" gradientUnits="userSpaceOnUse">
<stop stop-color="white"/>
<stop offset="1" stop-color="#7000FF"/>
</linearGradient>
<linearGradient id="paint1_linear_172_52" x1="5.82282e-07" y1="16" x2="30" y2="16" gradientUnits="userSpaceOnUse">
<stop stop-color="white"/>
<stop offset="1" stop-color="#7000FF"/>
</linearGradient>
<linearGradient id="paint2_linear_172_52" x1="5.82282e-07" y1="16" x2="30" y2="16" gradientUnits="userSpaceOnUse">
<stop stop-color="white"/>
<stop offset="1" stop-color="#7000FF"/>
</linearGradient>
<linearGradient id="paint3_linear_172_52" x1="5.82282e-07" y1="16" x2="30" y2="16" gradientUnits="userSpaceOnUse">
<stop stop-color="white"/>
<stop offset="1" stop-color="#7000FF"/>
</linearGradient>
</defs>
</svg>
