<svg width="18" height="19" viewBox="0 0 18 19" fill="none" xmlns="http://www.w3.org/2000/svg">
<path fill-rule="evenodd" clip-rule="evenodd" d="M12.9375 8.375C12.9375 9.03981 12.8065 9.69812 12.5521 10.3123C12.2977 10.9265 11.9248 11.4846 11.4547 11.9548C10.9846 12.4248 10.4265 12.7977 9.81231 13.0522C9.1981 13.3066 8.5398 13.4375 7.87498 13.4375C7.21016 13.4375 6.55186 13.3066 5.93764 13.0522C5.32344 12.7977 4.76535 12.4248 4.29525 11.9548C3.82515 11.4846 3.45226 10.9265 3.19784 10.3123C2.94342 9.69812 2.81248 9.03981 2.81248 8.375C2.81248 7.03234 3.34584 5.74467 4.29525 4.79527C5.24465 3.84586 6.53232 3.3125 7.87498 3.3125C9.21764 3.3125 10.5053 3.84586 11.4547 4.79527C12.4041 5.74467 12.9375 7.03234 12.9375 8.375ZM12.015 13.7075C10.6587 14.7605 8.95202 15.257 7.24251 15.0959C5.53299 14.9349 3.94911 14.1284 2.81332 12.8406C1.67752 11.5528 1.0752 9.88058 1.12895 8.16434C1.18272 6.4481 1.88852 4.81685 3.10267 3.60269C4.31684 2.38854 5.94808 1.68274 7.66432 1.62897C9.38057 1.57522 11.0528 2.17754 12.3406 3.31334C13.6284 4.44913 14.4349 6.03301 14.5959 7.74253C14.757 9.45203 14.2605 11.1587 13.2075 12.515L16.6275 15.935C16.7104 16.0123 16.7769 16.1054 16.823 16.2089C16.8691 16.3124 16.8939 16.4241 16.8959 16.5374C16.8979 16.6507 16.877 16.7632 16.8346 16.8683C16.7922 16.9734 16.729 17.0688 16.6489 17.1489C16.5688 17.2291 16.4734 17.2922 16.3683 17.3346C16.2632 17.377 16.1507 17.398 16.0374 17.3959C15.9241 17.3939 15.8123 17.3692 15.7089 17.323C15.6054 17.2769 15.5123 17.2104 15.435 17.1275L12.015 13.7075Z" fill="#9E9E9E"/>
</svg>
